<svg width="33" height="33" viewBox="0 0 33 33" fill="none" xmlns="http://www.w3.org/2000/svg">
<path d="M16.5048 0C18.9972 0.00144006 21.457 0.567195 23.6994 1.65481C25.9419 2.74243 27.9089 4.32365 29.4527 6.27983C30.9965 8.23601 32.0771 10.5163 32.6134 12.9497C33.1497 15.383 33.1278 17.9062 32.5492 20.3299C31.9707 22.7535 30.8505 25.0147 29.2729 26.9438C27.6953 28.8728 25.7011 30.4196 23.44 31.468C21.179 32.5165 18.7097 33.0394 16.2176 32.9975C13.7256 32.9556 11.2753 32.3499 9.0508 31.2261L8.80117 31.092L1.28118 32.9689C1.13646 33.0052 0.985562 33.0098 0.838906 32.9822C0.692249 32.9546 0.553325 32.8956 0.43172 32.8091C0.310115 32.7226 0.208725 32.6108 0.134547 32.4814C0.0603679 32.3519 0.0151667 32.2079 0.00206295 32.0593V31.8902L0.0309467 31.719L1.90836 24.2033L1.77839 23.9558C0.836626 22.0969 0.255596 20.0765 0.0660192 18.0014L0.0144416 17.2135L0 16.4999C0 12.1239 1.73889 7.92704 4.83414 4.83271C7.92938 1.73838 12.1274 0 16.5048 0ZM17.5363 18.5624H11.347L11.1614 18.5789C10.9235 18.6219 10.7083 18.7471 10.5534 18.9326C10.3985 19.118 10.3136 19.352 10.3136 19.5936C10.3136 19.8353 10.3985 20.0692 10.5534 20.2547C10.7083 20.4401 10.9235 20.5653 11.1614 20.6084L11.347 20.6249H17.5363L17.722 20.6084C17.9598 20.5653 18.175 20.4401 18.3299 20.2547C18.4849 20.0692 18.5698 19.8353 18.5698 19.5936C18.5698 19.352 18.4849 19.118 18.3299 18.9326C18.175 18.7471 17.9598 18.6219 17.722 18.5789L17.5363 18.5624ZM21.6625 12.3749H11.347L11.1614 12.3914C10.9235 12.4345 10.7083 12.5597 10.5534 12.7451C10.3985 12.9306 10.3136 13.1645 10.3136 13.4062C10.3136 13.6478 10.3985 13.8818 10.5534 14.0672C10.7083 14.2527 10.9235 14.3779 11.1614 14.4209L11.347 14.4374H21.6625L21.8482 14.4209C22.086 14.3779 22.3012 14.2527 22.4561 14.0672C22.6111 13.8818 22.6959 13.6478 22.6959 13.4062C22.6959 13.1645 22.6111 12.9306 22.4561 12.7451C22.3012 12.5597 22.086 12.4345 21.8482 12.3914L21.6625 12.3749Z" fill="#FCFCFC"/>
</svg>
