<svg width="19" height="19" viewBox="0 0 19 19" fill="none" xmlns="http://www.w3.org/2000/svg">
<path fill-rule="evenodd" clip-rule="evenodd" d="M3.79937 7.6V4.43333C3.79937 3.85114 3.91402 3.27465 4.13678 2.73677C4.35953 2.19889 4.68604 1.71017 5.09764 1.29849C5.50925 0.88682 5.99789 0.560263 6.53568 0.337467C7.07346 0.114672 7.64986 0 8.23196 0C8.81405 0 9.39045 0.114672 9.92824 0.337467C10.466 0.560263 10.9547 0.88682 11.3663 1.29849C11.7779 1.71017 12.1044 2.19889 12.3271 2.73677C12.5499 3.27465 12.6646 3.85114 12.6646 4.43333V7.6H14.5642C15.0681 7.6 15.5513 7.80018 15.9075 8.1565C16.2638 8.51282 16.4639 8.99609 16.4639 9.5V10.1967C17.1796 10.342 17.8231 10.7304 18.2853 11.296C18.7475 11.8615 19 12.5695 19 13.3C19 14.0305 18.7475 14.7385 18.2853 15.304C17.8231 15.8696 17.1796 16.258 16.4639 16.4033V17.1C16.4639 17.6039 16.2638 18.0872 15.9075 18.4435C15.5513 18.7998 15.0681 19 14.5642 19H1.89968C1.39586 19 0.912664 18.7998 0.556404 18.4435C0.200145 18.0872 0 17.6039 0 17.1L0 9.5C0 8.99609 0.200145 8.51282 0.556404 8.1565C0.912664 7.80018 1.39586 7.6 1.89968 7.6H3.79937ZM5.06582 4.43333C5.06582 3.59348 5.39939 2.78803 5.99316 2.19416C6.58693 1.6003 7.39225 1.26667 8.23196 1.26667C9.07167 1.26667 9.87699 1.6003 10.4708 2.19416C11.0645 2.78803 11.3981 3.59348 11.3981 4.43333V7.6H5.06582V4.43333ZM10.7649 11.4C10.261 11.4 9.77785 11.6002 9.42159 11.9565C9.06533 12.3128 8.86519 12.7961 8.86519 13.3C8.86519 13.8039 9.06533 14.2872 9.42159 14.6435C9.77785 14.9998 10.261 15.2 10.7649 15.2H15.8307C16.3345 15.2 16.8177 14.9998 17.174 14.6435C17.5302 14.2872 17.7304 13.8039 17.7304 13.3C17.7304 12.7961 17.5302 12.3128 17.174 11.9565C16.8177 11.6002 16.3345 11.4 15.8307 11.4H10.7649Z" fill="#FF1493"/>
</svg>
