<svg width="20" height="19" viewBox="0 0 20 19" fill="none" xmlns="http://www.w3.org/2000/svg">
<path d="M13.925 18.6L13.7 17.5C13.5 17.4167 13.3127 17.325 13.138 17.225C12.9633 17.125 12.7923 17.0083 12.625 16.875L11.575 17.25C11.4583 17.2833 11.346 17.2793 11.238 17.238C11.13 17.1967 11.0423 17.1257 10.975 17.025L10.375 16C10.3083 15.9 10.2877 15.7917 10.313 15.675C10.3383 15.5583 10.3923 15.4583 10.475 15.375L11.3 14.65C11.2667 14.4 11.25 14.1877 11.25 14.013C11.25 13.8383 11.2667 13.6257 11.3 13.375L10.475 12.65C10.3917 12.5667 10.3377 12.4667 10.313 12.35C10.2883 12.2333 10.309 12.125 10.375 12.025L10.975 11C11.0417 10.9 11.1293 10.8293 11.238 10.788C11.3467 10.7467 11.459 10.7423 11.575 10.775L12.625 11.15C12.7917 11.0167 12.9627 10.896 13.138 10.788C13.3133 10.68 13.5007 10.584 13.7 10.5L13.925 9.4C13.9583 9.28333 14.0127 9.18733 14.088 9.112C14.1633 9.03667 14.2673 8.99933 14.4 9H15.6C15.7333 9 15.8377 9.03767 15.913 9.113C15.9883 9.18833 16.0423 9.284 16.075 9.4L16.3 10.5C16.5 10.5833 16.6877 10.675 16.863 10.775C17.0383 10.875 17.209 10.9917 17.375 11.125L18.425 10.75C18.5417 10.7167 18.6543 10.721 18.763 10.763C18.8717 10.805 18.959 10.8757 19.025 10.975L19.625 12C19.6917 12.1 19.7127 12.2083 19.688 12.325C19.6633 12.4417 19.609 12.5417 19.525 12.625L18.7 13.35C18.7333 13.6 18.75 13.8127 18.75 13.988C18.75 14.1633 18.7333 14.3757 18.7 14.625L19.525 15.35C19.6083 15.4333 19.6627 15.5333 19.688 15.65C19.7133 15.7667 19.6923 15.875 19.625 15.975L19.025 17C18.9583 17.1 18.875 17.171 18.775 17.213C18.675 17.255 18.5667 17.259 18.45 17.225L17.375 16.875C17.2083 17.0083 17.0377 17.125 16.863 17.225C16.6883 17.325 16.5007 17.4167 16.3 17.5L16.075 18.6C16.0417 18.7167 15.9877 18.8127 15.913 18.888C15.8383 18.9633 15.734 19.0007 15.6 19H14.4C14.2667 19 14.1627 18.9627 14.088 18.888C14.0133 18.8133 13.959 18.7173 13.925 18.6ZM15 16C15.55 16 16.021 15.8043 16.413 15.413C16.805 15.0217 17.0007 14.5507 17 14C16.9993 13.4493 16.8037 12.9787 16.413 12.588C16.0223 12.1973 15.5513 12.0013 15 12C14.4487 11.9987 13.978 12.1947 13.588 12.588C13.198 12.9813 13.002 13.452 13 14C12.998 14.548 13.194 15.019 13.588 15.413C13.982 15.807 14.4527 16.0027 15 16ZM8 10C7.71667 10 7.47934 9.904 7.288 9.712C7.09667 9.52 7.00067 9.28267 7 9C6.99934 8.71733 7.09534 8.48 7.288 8.288C7.48067 8.096 7.718 8 8 8C8.282 8 8.51967 8.096 8.713 8.288C8.90634 8.48 9.002 8.71733 9 9C8.998 9.28267 8.902 9.52033 8.712 9.713C8.522 9.90567 8.28467 10.0013 8 10ZM1 18C0.71667 18 0.479337 17.904 0.288004 17.712C0.0966702 17.52 0.000670115 17.2827 3.44827e-06 17C-0.000663218 16.7173 0.0953369 16.48 0.288004 16.288C0.48067 16.096 0.718003 16 1 16H2V2C2 1.45 2.196 0.979333 2.588 0.588C2.98 0.196667 3.45067 0.000666667 4 0H10C10.3833 0 10.721 0.0916668 11.013 0.275C11.305 0.458333 11.5423 0.7 11.725 1H14C14.55 1 15.021 1.196 15.413 1.588C15.805 1.98 16.0007 2.45067 16 3V6C16 6.28333 15.904 6.521 15.712 6.713C15.52 6.905 15.2827 7.00067 15 7C14.7173 6.99933 14.48 6.90333 14.288 6.712C14.096 6.52067 14 6.28333 14 6V3H12V7.15C12 7.48333 11.896 7.73333 11.688 7.9C11.48 8.06667 11.2507 8.15 11 8.15C10.7493 8.15 10.5203 8.06667 10.313 7.9C10.1057 7.73333 10.0013 7.48333 10 7.15V2H4V16H7.675C8.00834 16 8.25434 16.1043 8.413 16.313C8.57167 16.5217 8.65067 16.7507 8.65 17C8.64934 17.2493 8.57 17.4787 8.412 17.688C8.254 17.8973 8.00834 18.0013 7.675 18H1Z" fill="white"/>
</svg>
