<svg width="24" height="24" viewBox="0 0 24 24" fill="none" xmlns="http://www.w3.org/2000/svg">
<path fill-rule="evenodd" clip-rule="evenodd" d="M9.13536 12.629L5.58114 11.4448C1.86091 10.2052 0 9.58545 0 8.4455C0 7.30713 1.86091 6.68577 5.58114 5.44622L19.0407 0.959163C21.6589 0.0864159 22.968 -0.349957 23.659 0.340967C24.3499 1.03189 23.9135 2.34101 23.0424 4.95767L18.5537 18.4188C17.3142 22.1391 16.6944 24 15.5545 24C14.4161 24 13.7947 22.1391 12.5552 18.4188L11.3694 14.8662L18.2533 7.98225C18.5413 7.68406 18.7007 7.28468 18.6971 6.87013C18.6935 6.45558 18.5272 6.05902 18.2341 5.76588C17.9409 5.47274 17.5444 5.30646 17.1298 5.30286C16.7153 5.29926 16.3159 5.45862 16.0177 5.74662L9.13536 12.629Z" fill="white"/>
</svg>
