<svg width="18" height="18" viewBox="0 0 18 18" fill="none" xmlns="http://www.w3.org/2000/svg">
<path fill-rule="evenodd" clip-rule="evenodd" d="M13.131 3.26092C11.9847 2.43574 10.6175 1.9728 9.20561 1.93175C7.79377 1.8907 6.40199 2.27342 5.20961 3.0306C4.01723 3.78777 3.07889 4.88471 2.5155 6.18004C1.95212 7.47538 1.78952 8.90977 2.04864 10.2984C2.09133 10.5478 2.03426 10.8041 1.88974 11.0119C1.74522 11.2196 1.52484 11.3623 1.27612 11.409C1.02739 11.4558 0.770263 11.4029 0.560184 11.2618C0.350105 11.1206 0.20391 10.9026 0.15313 10.6546C-0.181983 8.86098 0.0358666 7.00786 0.777803 5.34088C1.51974 3.6739 2.75072 2.27179 4.30758 1.3204C5.86444 0.369015 7.67364 -0.0867145 9.49537 0.0136236C11.3171 0.113962 13.0653 0.765629 14.5083 1.88224L15.2953 1.09516C15.3852 1.00507 15.4997 0.943671 15.6245 0.918723C15.7492 0.893775 15.8786 0.906403 15.9962 0.955009C16.1137 1.00361 16.2143 1.08601 16.285 1.19177C16.3557 1.29754 16.3935 1.42191 16.3935 1.54915V4.49813C16.3935 4.66868 16.3258 4.83224 16.2052 4.95283C16.0846 5.07342 15.9211 5.14117 15.7505 5.14117H12.8018C12.6749 5.14089 12.5508 5.10303 12.4454 5.03235C12.3399 4.96167 12.2577 4.86135 12.2091 4.74402C12.1606 4.6267 12.1479 4.49762 12.1725 4.37307C12.1972 4.24852 12.2583 4.13407 12.3479 4.04414L13.131 3.26092ZM16.7201 6.57515C16.9715 6.52774 17.2314 6.58214 17.4427 6.72637C17.6539 6.8706 17.7992 7.09285 17.8467 7.34423C18.182 9.13807 17.9643 10.9915 17.2224 12.6587C16.4804 14.326 15.2492 15.7283 13.6921 16.6798C12.135 17.6312 10.3255 18.0869 8.5035 17.9863C6.68152 17.8857 4.93314 17.2337 3.4902 16.1166L2.70319 16.905C2.61326 16.9951 2.49859 17.0566 2.37371 17.0815C2.24884 17.1064 2.11938 17.0936 2.00174 17.0449C1.88411 16.9961 1.78361 16.9135 1.71297 16.8075C1.64234 16.7016 1.60475 16.577 1.60498 16.4497V13.5007C1.60498 13.3302 1.67272 13.1666 1.7933 13.046C1.91389 12.9254 2.07743 12.8577 2.24796 12.8577H5.19667C5.324 12.8574 5.44854 12.895 5.55449 12.9657C5.66044 13.0363 5.74303 13.1368 5.79179 13.2545C5.84055 13.3721 5.85328 13.5016 5.82838 13.6265C5.80347 13.7514 5.74205 13.866 5.65189 13.956L4.86746 14.7392C6.01384 15.5644 7.38104 16.0273 8.79288 16.0684C10.2047 16.1094 11.5965 15.7267 12.7889 14.9695C13.9813 14.2123 14.9196 13.1154 15.483 11.8201C16.0464 10.5247 16.209 9.09036 15.9499 7.70176C15.9264 7.57711 15.9278 7.44905 15.9539 7.32493C15.98 7.20081 16.0303 7.08305 16.102 6.9784C16.1737 6.87376 16.2653 6.78428 16.3716 6.71508C16.4779 6.64589 16.5967 6.59834 16.7214 6.57515H16.7201ZM9.80554 4.70005C9.80554 4.44423 9.70393 4.19889 9.52306 4.018C9.34219 3.83711 9.09687 3.73549 8.84107 3.73549C8.58528 3.73549 8.33996 3.83711 8.15909 4.018C7.97822 4.19889 7.87661 4.44423 7.87661 4.70005V5.14117C7.37385 5.22436 6.9158 5.48019 6.58128 5.86465C6.24675 6.2491 6.05666 6.73813 6.04372 7.24761C6.03078 7.75709 6.19579 8.25514 6.51037 8.65609C6.82495 9.05703 7.26941 9.33579 7.7673 9.4444L9.38761 9.79807C9.48369 9.82245 9.56775 9.88069 9.62433 9.96209C9.68091 10.0435 9.7062 10.1426 9.69557 10.2412C9.68493 10.3397 9.63907 10.4311 9.56643 10.4986C9.49378 10.566 9.39924 10.605 9.30016 10.6083H8.38199C8.29747 10.608 8.2151 10.5816 8.14608 10.5329C8.07705 10.4841 8.02472 10.4152 7.9962 10.3357C7.95398 10.2162 7.88864 10.1062 7.80392 10.0119C7.71919 9.91769 7.61673 9.84107 7.50239 9.78643C7.38806 9.73179 7.26408 9.70022 7.13754 9.6935C7.011 9.68678 6.88437 9.70505 6.76489 9.74728C6.64541 9.7895 6.53542 9.85484 6.44119 9.93958C6.34697 10.0243 6.27035 10.1268 6.21572 10.2411C6.16109 10.3555 6.12951 10.4795 6.12279 10.606C6.11608 10.7326 6.13435 10.8592 6.17657 10.9787C6.3091 11.3529 6.5345 11.6873 6.83164 11.9505C7.12878 12.2137 7.4879 12.397 7.87532 12.4834V12.949C7.87532 13.2048 7.97693 13.4501 8.15781 13.631C8.33868 13.8119 8.584 13.9135 8.83979 13.9135C9.09558 13.9135 9.3409 13.8119 9.52177 13.631C9.70265 13.4501 9.80426 13.2048 9.80426 12.949V12.4834C10.3237 12.367 10.788 12.0769 11.1204 11.6611C11.4528 11.2453 11.6336 10.7285 11.6329 10.1961C11.6321 9.66371 11.4499 9.14748 11.1163 8.73258C10.7827 8.31769 10.3176 8.02894 9.79783 7.91397L8.17752 7.55901C8.11465 7.54483 8.0592 7.50799 8.02174 7.45554C7.98429 7.40308 7.96745 7.33867 7.97445 7.2746C7.98144 7.21052 8.01178 7.15126 8.05967 7.10813C8.10756 7.06499 8.16965 7.04099 8.2341 7.04072H9.29888C9.38357 7.04029 9.46629 7.06633 9.53545 7.11522C9.60462 7.1641 9.65679 7.23338 9.68466 7.31336C9.76993 7.55469 9.94756 7.75225 10.1785 7.86259C10.2928 7.91723 10.4168 7.94881 10.5433 7.95553C10.6699 7.96224 10.7965 7.94397 10.916 7.90175C11.0355 7.85952 11.1454 7.79418 11.2397 7.70944C11.3339 7.62471 11.4105 7.52224 11.4651 7.40789C11.5198 7.29355 11.5514 7.16956 11.5581 7.043C11.5648 6.91645 11.5465 6.78981 11.5043 6.67032C11.3721 6.29573 11.1466 5.96101 10.8492 5.69774C10.5517 5.43447 10.1921 5.25133 9.80426 5.16561V4.70262L9.80554 4.70005Z" fill="white"/>
</svg>
